PathFileType	4	(X/Y/Z)	/home/nbianco/projects/addbio/data/HamnerRunning2013/Processed/subject19//results/MarkerData/run300.trc
DataRate	CameraRate	NumFrames	NumMarkers	Units	OrigDataRate	OrigDataStartFrame	OrigNumFrames
120.005	120.005	9	42	m	120.005	163	261
Frame#	Time	C7			CLAV			LACR			LASI			LCAL			LFAradius			LFAsuperior			LFAulna			LLEL			LMEL			LMT5			LPSI			LTB1			LTB2			LTB3			LTH1			LTH2			LTH3			LTOE			LUA1			LUA2			LUA3			RACR			RASI			RCAL			RFAradius			RFAsuperior			RFAulna			RLEL			RMEL			RMT5			RPSI			RTB1			RTB2			RTB3			RTH1			RTH2			RTH3			RTOE			RUA1			RUA2			RUA3		
		X1	Y1	Z1	X2	Y2	Z2	X3	Y3	Z3	X4	Y4	Z4	X5	Y5	Z5	X6	Y6	Z6	X7	Y7	Z7	X8	Y8	Z8	X9	Y9	Z9	X10	Y10	Z10	X11	Y11	Z11	X12	Y12	Z12	X13	Y13	Z13	X14	Y14	Z14	X15	Y15	Z15	X16	Y16	Z16	X17	Y17	Z17	X18	Y18	Z18	X19	Y19	Z19	X20	Y20	Z20	X21	Y21	Z21	X22	Y22	Z22	X23	Y23	Z23	X24	Y24	Z24	X25	Y25	Z25	X26	Y26	Z26	X27	Y27	Z27	X28	Y28	Z28	X29	Y29	Z29	X30	Y30	Z30	X31	Y31	Z31	X32	Y32	Z32	X33	Y33	Z33	X34	Y34	Z34	X35	Y35	Z35	X36	Y36	Z36	X37	Y37	Z37	X38	Y38	Z38	X39	Y39	Z39	X40	Y40	Z40	X41	Y41	Z41	X42	Y42	Z42

164	1.50833	1.04457	1.55735	-0.348023	1.14297	1.47451	-0.290044	1.12014	1.52679	-0.508383	1.10805	1.02957	-0.432527	0.569521	0.273341	-0.365797	1.20125	1.33401	-0.450125	1.10019	1.26493	-0.594925	1.21867	1.27019	-0.439421	1.02396	1.24788	-0.630616	0.968322	1.24905	-0.578447	0.639336	0.0769988	-0.410226	0.941997	1.08582	-0.386254	0.848894	0.431739	-0.389116	0.759636	0.377154	-0.438449	0.72426	0.282377	-0.372073	0.998636	0.8725	-0.496378	1.03028	0.756683	-0.461799	0.91151	0.669242	-0.451301	0.672774	0.102826	-0.307096	1.09979	1.45259	-0.565937	1.03003	1.40732	-0.56272	1.09014	1.35038	-0.591479	1.0429	1.5253	-0.158868	1.0905	1.05748	-0.201322	1.12833	0.18217	-0.281791	0.90673	1.09766	-0.0801191	0.842954	1.27046	-0.0977735	0.846537	1.07676	-0.103207	0.797251	1.34307	-0.139546	0.808843	1.33582	-0.206466	1.30923	0.0909132	-0.20053	0.930791	1.09108	-0.288317	1.29078	0.486312	-0.238803	1.2308	0.432751	-0.180618	1.25866	0.307721	-0.245672	1.08389	0.916907	-0.141575	1.20166	0.801689	-0.171362	1.18858	0.700581	-0.184001	1.33474	0.138788	-0.294967	0.983365	1.47375	-0.121187	0.954844	1.39008	-0.131044	0.878593	1.4268	-0.15439
165	1.51667	1.04491	1.56051	-0.346898	1.14302	1.47762	-0.288964	1.12093	1.53108	-0.506808	1.1106	1.03356	-0.432762	0.564364	0.28795	-0.369646	1.19978	1.33973	-0.449907	1.10052	1.27008	-0.595247	1.21681	1.27565	-0.43784	1.02456	1.25324	-0.631618	0.96824	1.25482	-0.58013	0.622102	0.0860808	-0.409256	0.944559	1.09023	-0.387269	0.843743	0.438936	-0.387515	0.754837	0.385144	-0.438922	0.716118	0.290895	-0.372873	1.00006	0.87756	-0.49753	1.02872	0.761625	-0.462713	0.908931	0.676312	-0.449112	0.655437	0.111543	-0.307355	1.1008	1.458	-0.564736	1.03131	1.41287	-0.562928	1.09136	1.3557	-0.591757	1.04291	1.52829	-0.157875	1.09234	1.06131	-0.200348	1.15331	0.173054	-0.281449	0.906024	1.10307	-0.0806678	0.841423	1.27578	-0.0986455	0.846145	1.08194	-0.104413	0.796022	1.34828	-0.140593	0.807983	1.34145	-0.207483	1.34005	0.0904273	-0.204645	0.933445	1.09552	-0.289535	1.29327	0.486889	-0.239206	1.23908	0.429568	-0.180121	1.27457	0.306868	-0.246256	1.08182	0.91753	-0.142564	1.19807	0.800183	-0.170679	1.18368	0.69933	-0.183912	1.36193	0.141714	-0.297019	0.983019	1.47818	-0.120628	0.953803	1.39444	-0.130515	0.878067	1.43216	-0.15481
166	1.525	1.04521	1.563	-0.345604	1.14314	1.47991	-0.287906	1.12138	1.53449	-0.505368	1.11277	1.03682	-0.432936	0.55885	0.302287	-0.373953	1.19823	1.34349	-0.449443	1.10043	1.27407	-0.595674	1.21488	1.27907	-0.436655	1.02464	1.25779	-0.632582	0.967778	1.25978	-0.581715	0.605134	0.0959008	-0.407782	0.946909	1.0939	-0.387964	0.84028	0.444182	-0.385768	0.751343	0.391962	-0.439105	0.708242	0.298968	-0.373498	1.00139	0.882091	-0.498335	1.02777	0.765722	-0.464051	0.90833	0.681329	-0.447381	0.638016	0.121716	-0.306874	1.10148	1.46235	-0.563732	1.03231	1.4173	-0.563223	1.09228	1.35989	-0.591997	1.04309	1.53037	-0.156614	1.094	1.06386	-0.199574	1.17598	0.165656	-0.282069	0.905714	1.10753	-0.0810535	0.840178	1.27999	-0.0992947	0.84609	1.08601	-0.105395	0.795076	1.35238	-0.141424	0.807353	1.34591	-0.208279	1.36735	0.0923255	-0.207953	0.935712	1.09899	-0.290338	1.29461	0.487071	-0.239814	1.24565	0.426682	-0.180018	1.28826	0.306552	-0.246993	1.07871	0.916072	-0.143603	1.19482	0.797618	-0.169702	1.17913	0.697	-0.183545	1.38602	0.145896	-0.298491	0.982898	1.48154	-0.119829	0.953019	1.3977	-0.130011	0.877747	1.43635	-0.154975
167	1.53333	1.04551	1.56482	-0.344125	1.1433	1.48145	-0.286845	1.12148	1.53701	-0.504021	1.11456	1.0393	-0.432955	0.552943	0.316531	-0.378631	1.19671	1.34515	-0.448608	1.09992	1.2769	-0.596139	1.21294	1.28043	-0.435845	1.0242	1.26159	-0.633468	0.967009	1.26394	-0.583185	0.588707	0.106744	-0.406024	0.948913	1.09672	-0.388437	0.838305	0.447322	-0.384239	0.748787	0.397626	-0.439096	0.700632	0.306741	-0.373882	1.00264	0.885778	-0.498661	1.02795	0.768554	-0.465261	0.910052	0.683775	-0.446388	0.620788	0.133556	-0.305672	1.10184	1.46559	-0.562962	1.03296	1.42067	-0.563474	1.09278	1.36305	-0.592186	1.04343	1.53148	-0.155236	1.09541	1.06493	-0.199573	1.19562	0.159836	-0.283489	0.905789	1.11095	-0.0813276	0.839269	1.28303	-0.0997258	0.846353	1.08893	-0.10618	0.794447	1.35532	-0.142001	0.807019	1.34909	-0.208761	1.39041	0.0958339	-0.210297	0.937524	1.1014	-0.290689	1.29501	0.486851	-0.24044	1.25007	0.423975	-0.180367	1.29943	0.306577	-0.247692	1.07504	0.91323	-0.144643	1.19189	0.794264	-0.168696	1.17492	0.693838	-0.183173	1.40641	0.15111	-0.299643	0.983001	1.48373	-0.118805	0.952537	1.39985	-0.129484	0.877665	1.43931	-0.154832
168	1.54167	1.04584	1.56596	-0.342482	1.1435	1.48227	-0.285768	1.12126	1.53865	-0.502715	1.11604	1.04103	-0.432804	0.54697	0.330886	-0.383447	1.19534	1.34471	-0.447502	1.09898	1.27861	-0.596571	1.21099	1.27974	-0.435335	1.02323	1.26469	-0.634243	0.965938	1.26731	-0.584508	0.573285	0.118802	-0.404209	0.95048	1.09861	-0.38881	0.837589	0.448673	-0.383002	0.747017	0.402416	-0.438966	0.69348	0.314494	-0.37399	1.00406	0.888111	-0.498425	1.02984	0.769807	-0.465649	0.914137	0.68354	-0.44601	0.604355	0.147041	-0.304035	1.10184	1.46773	-0.56236	1.03322	1.42311	-0.563544	1.09277	1.3653	-0.592306	1.04391	1.53163	-0.153834	1.09654	1.06459	-0.20043	1.21167	0.155507	-0.285447	0.906246	1.11314	-0.0816013	0.838767	1.28486	-0.099939	0.846922	1.09069	-0.106813	0.794158	1.35711	-0.142275	0.807013	1.351	-0.208856	1.40865	0.0996803	-0.211717	0.938938	1.10266	-0.2907	1.29478	0.486273	-0.240895	1.2523	0.421337	-0.181196	1.30799	0.306761	-0.248203	1.07138	0.909791	-0.145521	1.18924	0.79043	-0.167993	1.17101	0.690158	-0.183118	1.42269	0.156549	-0.300642	0.98333	1.4847	-0.117542	0.952399	1.40087	-0.128862	0.877856	1.44101	-0.154362
169	1.55	1.04621	1.56638	-0.340733	1.14372	1.48238	-0.284687	1.12079	1.53942	-0.50142	1.1173	1.04211	-0.432537	0.541505	0.345507	-0.388065	1.19416	1.3423	-0.446336	1.09759	1.27928	-0.596919	1.20899	1.27708	-0.435055	1.02172	1.26713	-0.63487	0.964506	1.26992	-0.585593	0.559168	0.132044	-0.402512	0.95164	1.09948	-0.389171	0.837947	0.448842	-0.381884	0.746098	0.406754	-0.438747	0.687111	0.322474	-0.373924	1.00613	0.888538	-0.497632	1.03382	0.769419	-0.464627	0.920292	0.680956	-0.445873	0.589427	0.161845	-0.302417	1.10145	1.46888	-0.561779	1.03299	1.42473	-0.56331	1.09219	1.36674	-0.592323	1.04454	1.53086	-0.152431	1.0974	1.0632	-0.201667	1.22381	0.152544	-0.287732	0.907088	1.1139	-0.0819958	0.838749	1.28547	-0.0999251	0.847803	1.09127	-0.107327	0.794226	1.35772	-0.142189	0.807332	1.35168	-0.208561	1.42175	0.102566	-0.212385	0.940025	1.1027	-0.290589	1.29417	0.485395	-0.241115	1.25269	0.418677	-0.182483	1.31409	0.30686	-0.248561	1.06827	0.906395	-0.146042	1.1869	0.786386	-0.167821	1.16741	0.686297	-0.183568	1.43473	0.160918	-0.301481	0.983891	1.48449	-0.115989	0.952627	1.40079	-0.128096	0.878337	1.44145	-0.15358
170	1.55833	1.0466	1.56605	-0.338947	1.14396	1.48177	-0.283635	1.12019	1.53933	-0.500141	1.11845	1.04261	-0.432247	0.537191	0.360472	-0.392125	1.19313	1.3381	-0.445274	1.09572	1.27898	-0.597165	1.20689	1.27255	-0.435021	1.01965	1.26892	-0.635294	0.962627	1.27186	-0.586287	0.546343	0.146293	-0.401069	0.952506	1.0993	-0.389548	0.839305	0.448411	-0.380709	0.746188	0.411016	-0.43847	0.681882	0.330752	-0.373918	1.00937	0.886788	-0.496388	1.0398	0.767636	-0.461969	0.928022	0.676641	-0.445631	0.576554	0.177424	-0.301238	1.10066	1.46915	-0.561059	1.03221	1.42561	-0.562673	1.09102	1.36745	-0.592194	1.04532	1.52926	-0.151011	1.09804	1.06133	-0.202644	1.23192	0.150632	-0.290295	0.90833	1.11313	-0.0825743	0.839275	1.28481	-0.0996735	0.849024	1.09064	-0.107737	0.79466	1.35716	-0.141693	0.807947	1.35122	-0.207925	1.42966	0.103637	-0.212535	0.940788	1.10154	-0.290566	1.2933	0.484212	-0.24124	1.25188	0.415913	-0.184146	1.31792	0.306525	-0.249018	1.06605	0.903397	-0.146099	1.18504	0.782347	-0.168199	1.16425	0.68256	-0.184497	1.44267	0.162994	-0.302111	0.984686	1.48317	-0.114111	0.953218	1.39959	-0.127187	0.879106	1.44063	-0.152513
171	1.56667	1.04697	1.56493	-0.33717	1.14422	1.4804	-0.282662	1.11956	1.53841	-0.498901	1.11959	1.04252	-0.432015	0.534583	0.375788	-0.395336	1.19214	1.33225	-0.444362	1.09333	1.27778	-0.597318	1.20461	1.26627	-0.435415	1.01704	1.27002	-0.635459	0.960256	1.27319	-0.586442	0.534619	0.16138	-0.400022	0.953187	1.09809	-0.389932	0.841735	0.447687	-0.379526	0.747412	0.415399	-0.438194	0.678086	0.3392	-0.374205	1.014	0.883119	-0.494899	1.04725	0.764919	-0.457951	0.936837	0.671271	-0.445184	0.565957	0.193199	-0.300757	1.09951	1.46866	-0.560112	1.03088	1.42578	-0.561573	1.08929	1.36746	-0.591892	1.04624	1.52687	-0.149538	1.09848	1.05938	-0.203051	1.23599	0.149206	-0.293199	0.909996	1.11088	-0.0833014	0.840373	1.2829	-0.0991836	0.850627	1.08877	-0.108047	0.795455	1.3554	-0.140749	0.808815	1.34966	-0.206988	1.43262	0.102628	-0.212501	0.941175	1.09922	-0.290741	1.29218	0.482591	-0.241563	1.25045	0.412968	-0.186057	1.3196	0.30536	-0.249913	1.06488	0.900865	-0.145707	1.18389	0.778524	-0.168924	1.16175	0.679163	-0.185714	1.44672	0.162219	-0.302608	0.985703	1.48082	-0.111942	0.954142	1.39728	-0.126172	0.880146	1.43857	-0.151167
172	1.575	1.04725	1.56305	-0.335407	1.1445	1.47825	-0.281801	1.11898	1.53668	-0.497707	1.12072	1.04183	-0.431877	0.534073	0.391378	-0.397543	1.19105	1.32483	-0.443559	1.09041	1.27573	-0.597392	1.20208	1.2584	-0.436552	1.01389	1.27041	-0.635339	0.957418	1.27395	-0.586029	0.523898	0.177218	-0.399533	0.953722	1.09588	-0.390337	0.845386	0.446668	-0.378602	0.749809	0.419897	-0.438008	0.675905	0.347587	-0.374882	1.01981	0.878255	-0.493422	1.05542	0.76173	-0.453305	0.946372	0.665402	-0.444704	0.55755	0.208717	-0.301048	1.09808	1.46747	-0.558964	1.02905	1.42526	-0.560012	1.08705	1.36676	-0.591413	1.04728	1.52376	-0.147963	1.09871	1.0575	-0.203037	1.23609	0.147582	-0.296425	0.912112	1.10731	-0.084058	0.842027	1.27973	-0.0984642	0.852661	1.08563	-0.108265	0.796589	1.35241	-0.139345	0.809884	1.34698	-0.205736	1.43113	0.0996172	-0.212775	0.941155	1.09585	-0.291128	1.29076	0.48028	-0.24239	1.24871	0.409754	-0.188097	1.31911	0.303039	-0.25147	1.06468	0.898664	-0.144962	1.18359	0.775174	-0.169644	1.16012	0.676177	-0.186987	1.44706	0.158791	-0.303191	0.986903	1.47748	-0.1096	0.955354	1.39387	-0.125075	0.881422	1.43533	-0.149513
